<svg width="20" height="22" viewBox="0 0 20 22" fill="none" xmlns="http://www.w3.org/2000/svg">
<path fill-rule="evenodd" clip-rule="evenodd" d="M6.66715 9.89972H4.44429V12.1003H6.66715V9.89972ZM11.1114 9.89972H8.88858V12.1003H11.1114V9.89972ZM15.5557 9.89972H13.3329V12.1003H15.5557V9.89972ZM17.7786 2.20057H16.6672V0H14.4443V2.20056H5.55572V0H3.33286V2.20056H2.22286C1.63459 2.20056 1.07059 2.43258 0.65558 2.84529C0.24059 3.25798 0.00877046 3.81737 0.0114305 4.39971L4.6196e-07 19.7994C-0.000379538 20.3832 0.233691 20.9431 0.65064 21.3559C1.06759 21.7687 1.6332 22.0004 2.22286 22H17.7772C19.0035 21.9969 19.9969 21.0135 20 19.7994V4.39971C19.9961 3.18621 19.0029 2.20366 17.7772 2.20056L17.7786 2.20057ZM17.7786 19.7994H2.22286V7.69915H17.7772L17.7786 19.7994Z" fill="#4F4F4F"/>
</svg>
