<svg width="14" height="14" viewBox="0 0 14 14" fill="none" xmlns="http://www.w3.org/2000/svg">
<g clip-path="url(#clip0_2_139)">
<path fill-rule="evenodd" clip-rule="evenodd" d="M9.09234 10.856L7.88167 9.58805C6.9261 9.94578 5.85913 9.69491 5.14152 8.94376C4.42391 8.19261 4.18424 7.07578 4.526 6.07554L2.981 4.45833C1.70367 5.64778 1 6.99981 1 6.99981C1 6.99981 3.25 11.3176 7 11.3176C7.72025 11.315 8.43234 11.1579 9.09233 10.856H9.09234ZM4.90768 3.14362C5.56767 2.84173 6.27976 2.68463 7.00001 2.68201C10.75 2.68201 13 6.99981 13 6.99981C13 6.99981 12.2957 8.3508 11.0193 9.54164L9.47301 7.92303C9.81477 6.92279 9.57509 5.80596 8.85749 5.05481C8.13988 4.30366 7.07292 4.05279 6.11734 4.41052L4.90767 3.14431L4.90768 3.14362Z" fill="#919191"/>
<path fill-rule="evenodd" clip-rule="evenodd" d="M5.02314 6.71711C4.93409 7.33952 5.14334 7.96752 5.58793 8.41211C6.03252 8.8567 6.66052 9.06596 7.28293 8.97691L5.02243 6.71711H5.02314ZM8.97752 7.28268L6.71772 5.02217C7.34013 4.93312 7.96813 5.14237 8.41272 5.58697C8.85731 6.03156 9.06657 6.65956 8.97752 7.28197V7.28268Z" fill="#919191"/>
<path fill-rule="evenodd" clip-rule="evenodd" d="M11.1632 12L2.315 2.55713L2.83704 2L11.6853 11.4429L11.1632 12Z" fill="#919191"/>
</g>
<defs>
<clipPath id="clip0_2_139">
<rect width="12" height="10" fill="white" transform="translate(1 2)"/>
</clipPath>
</defs>
</svg>
