<svg width="24" height="22" viewBox="0 0 24 22" fill="none" xmlns="http://www.w3.org/2000/svg">
<g clip-path="url(#clip0_458_277)">
<path d="M8.7547 12.715C8.95382 13.3386 9.52281 13.7605 10.1646 13.7605H20.5938C21.2599 13.7602 21.8441 13.3062 22.0223 12.6503L23.9459 5.56004C24.0699 5.1041 23.9782 4.61516 23.698 4.23837C23.4179 3.86157 22.9815 3.64023 22.5185 3.64005H7.10868L5.71624 1.65751C4.98441 0.61694 3.80714 3e-05 2.55318 0H1.09297C0.48934 0 0 0.50006 0 1.11692C0 1.73378 0.48934 2.23384 1.09297 2.23384H2.3171C3.01173 2.23309 3.6636 2.57658 4.06585 3.1553L6.02555 5.97776V14.8014C6.02555 16.235 7.16277 17.3972 8.56561 17.3972H20.3161C20.9198 17.3972 21.4091 16.8971 21.4091 16.2803C21.4091 15.6634 20.9198 15.1633 20.3161 15.1633H8.85634C8.52253 15.1633 8.25193 14.8868 8.25193 14.5457V11.1391L8.7547 12.715Z" fill="#4F4F4F"/>
<circle cx="8.32621" cy="19.8982" r="1.512" fill="#4F4F4F"/>
<circle cx="19.4955" cy="19.8982" r="1.512" fill="#4F4F4F"/>
</g>
<defs>
<clipPath id="clip0_458_277">
<rect width="24" height="21.4102" fill="white"/>
</clipPath>
</defs>
</svg>
