<svg width="14" height="14" viewBox="0 0 14 14" fill="none" xmlns="http://www.w3.org/2000/svg">
<g clip-path="url(#clip0_458_316)">
<path fill-rule="evenodd" clip-rule="evenodd" d="M9.34936 1.60176C7.21354 -0.53392 3.73732 -0.53392 1.6015 1.60176C-0.533863 3.73791 -0.533863 7.21343 1.6015 9.34957C3.50351 11.251 6.46579 11.4547 8.60023 9.96995C8.64514 10.1824 8.74793 10.3852 8.91322 10.5505L12.0237 13.6608C12.4769 14.1131 13.2094 14.1131 13.6604 13.6608C14.1132 13.208 14.1132 12.4755 13.6604 12.0241L10.5499 8.91299C10.3856 8.7491 10.1823 8.64586 9.96979 8.60095C11.4556 6.46619 11.2518 3.50457 9.34937 1.60176H9.34936ZM8.36734 8.36762C6.77276 9.96209 4.17764 9.96209 2.58353 8.36762C0.989877 6.77315 0.989877 4.17866 2.58353 2.58419C4.17764 0.99018 6.77276 0.99018 8.36734 2.58419C9.96192 4.17866 9.96192 6.77315 8.36734 8.36762Z" fill="#4F4F4F"/>
</g>
<defs>
<clipPath id="clip0_458_316">
<rect width="14" height="14" fill="white"/>
</clipPath>
</defs>
</svg>
