<svg width="20" height="22" viewBox="0 0 20 22" fill="none" xmlns="http://www.w3.org/2000/svg">
<g clip-path="url(#clip0_551_264)">
<g clip-path="url(#clip1_551_264)">
<g clip-path="url(#clip2_551_264)">
<path d="M19.9291 18.6653L18.212 16.0264C17.419 14.8083 17 13.4132 17 11.9933V9.68165C17 6.76333 14.8879 4.29498 11.9998 3.49923V1.84414C11.9998 0.82709 11.1027 0 9.99966 0C8.89661 0 7.99956 0.82709 7.99956 1.84414V3.49923C5.11149 4.29498 2.9994 6.76333 2.9994 9.68165V11.9933C2.9994 13.4132 2.58037 14.8074 1.78834 16.0255L0.0712906 18.6644C-0.0217094 18.8073 -0.0237294 18.9844 0.0652906 19.1291C0.154311 19.2739 0.319321 19.3633 0.499331 19.3633H19.5001C19.6801 19.3633 19.8461 19.2739 19.9351 19.1301C20.0241 18.9862 20.0211 18.8073 19.9291 18.6653L19.9291 18.6653Z" fill="#4F4F4F"/>
</g>
</g>
<g clip-path="url(#clip3_551_264)">
<g clip-path="url(#clip4_551_264)">
<path d="M7.23206 20.242C7.72776 21.2774 8.77716 21.9998 9.9997 21.9998C11.2222 21.9998 12.2717 21.2774 12.7674 20.242H7.23206Z" fill="#4F4F4F"/>
</g>
</g>
</g>
<defs>
<clipPath id="clip0_551_264">
<rect width="20" height="21.9998" fill="white"/>
</clipPath>
<clipPath id="clip1_551_264">
<rect width="20" height="19.3633" fill="white"/>
</clipPath>
<clipPath id="clip2_551_264">
<rect width="20" height="19.3633" fill="white"/>
</clipPath>
<clipPath id="clip3_551_264">
<rect width="5.53534" height="1.75781" fill="white" transform="translate(7.23206 20.242)"/>
</clipPath>
<clipPath id="clip4_551_264">
<rect width="5.53534" height="1.75781" fill="white" transform="translate(7.23206 20.242)"/>
</clipPath>
</defs>
</svg>
