<svg width="12" height="13" viewBox="0 0 12 13" fill="none" xmlns="http://www.w3.org/2000/svg">
<path fill-rule="evenodd" clip-rule="evenodd" d="M1.39169 3.25711L3.18252 1.76378C3.43336 1.55378 3.46836 1.18628 3.25836 0.94128C3.05419 0.690446 2.68669 0.66128 2.44169 0.865446L0.645024 2.35878C0.400024 2.56878 0.365024 2.93628 0.575024 3.18128C0.77919 3.43211 1.14669 3.46128 1.39169 3.25711ZM9.55836 0.865446L11.355 2.35878C11.6 2.56878 11.635 2.93628 11.425 3.18128C11.215 3.43211 10.8475 3.46128 10.6025 3.25711L8.81169 1.76378C8.56669 1.55378 8.53169 1.18628 8.73586 0.94128C8.94586 0.690446 9.31336 0.66128 9.55836 0.865446ZM6.29169 7.16545L8.25752 8.33211C8.46169 8.44878 8.52586 8.71128 8.40336 8.91545C8.28669 9.11378 8.03002 9.17211 7.83169 9.05545L5.70252 7.77795C5.52169 7.67295 5.41669 7.48045 5.41669 7.27628V4.52295C5.41669 4.28961 5.60336 4.10295 5.83669 4.10295H5.87169C6.10502 4.10295 6.29169 4.28961 6.29169 4.52295V7.16545ZM0.750024 7.01961C0.750024 4.12045 3.10086 1.76961 6.00002 1.76961C8.89919 1.76961 11.25 4.12045 11.25 7.01961C11.25 9.91878 8.89919 12.2696 6.00002 12.2696C3.10086 12.2696 0.750024 9.91878 0.750024 7.01961Z" fill="#4F4F4F"/>
</svg>
