<svg width="26" height="21" viewBox="0 0 26 21" fill="none" xmlns="http://www.w3.org/2000/svg">
<g clip-path="url(#clip0_458_311)">
<path d="M12.998 4.01099L3.83224 11.8748C3.83149 11.8916 3.82893 11.9082 3.82461 11.9243C3.82031 11.9405 3.81777 11.9572 3.817 11.9739V19.9368C3.82467 20.5198 4.27663 20.9907 4.83678 20.9992H10.9603V14.6289H15.0413V21.0002H21.1619C21.7223 20.9917 22.1745 20.521 22.1827 19.9378V11.9749C22.1843 11.941 22.1787 11.9072 22.1665 11.8758L12.998 4.01099Z" fill="#E60A17"/>
<path d="M25.8162 10.3692L22.2878 7.34953V0.58082C22.2933 0.43828 22.2406 0.29987 22.1426 0.199C22.0446 0.09814 21.91 0.04398 21.7715 0.04962H18.6755C18.5369 0.04368 18.4022 0.09773 18.3041 0.19866C18.206 0.2996 18.1535 0.43819 18.1592 0.58081V3.81552L14.2243 0.43116C13.503 -0.14372 12.495 -0.14372 11.7737 0.43116L0.178863 10.3692C0.0722233 10.456 0.00753332 10.5862 0.00162332 10.726C-0.0120967 10.8663 0.0283833 11.0065 0.114323 11.1164L1.11419 12.3443C1.20236 12.4449 1.32267 12.5096 1.45326 12.5266C1.59083 12.5347 1.72691 12.4938 1.83857 12.4107L12.9971 2.83737L24.1556 12.4107C24.2507 12.4912 24.3716 12.5326 24.4946 12.5266H24.5428C24.6734 12.5095 24.7937 12.4448 24.8819 12.3443L25.8837 11.1154C25.9696 11.0055 26.0101 10.8653 25.9964 10.725C25.9892 10.5851 25.9235 10.4553 25.8162 10.3692V10.3692Z" fill="#E60A17"/>
</g>
<defs>
<clipPath id="clip0_458_311">
<rect width="26" height="21.0002" fill="white" transform="translate(-0.000999451)"/>
</clipPath>
</defs>
</svg>
