<svg width="21" height="21" viewBox="0 0 21 21" fill="none" xmlns="http://www.w3.org/2000/svg">
<g clip-path="url(#clip0_458_301)">
<g clip-path="url(#clip1_458_301)">
<path d="M17.9084 20.8811L15.0377 18.926L12.167 20.8811C11.9307 21.0421 11.6194 21.04 11.3851 20.876C11.1509 20.7119 11.0426 20.4201 11.1131 20.1429L12.0081 16.61L9.31788 14.3134C9.10411 14.1306 9.02315 13.8361 9.11345 13.5697C9.20375 13.3033 9.44711 13.1188 9.72797 13.1036L13.1553 12.9099L14.3979 9.52656C14.4969 9.25484 14.7552 9.07401 15.0443 9.07401C15.3335 9.07401 15.5918 9.25484 15.6908 9.52656L16.9334 12.9099L20.3484 13.1036C20.6293 13.1188 20.8727 13.3033 20.9629 13.5697C21.0532 13.8361 20.9723 14.1306 20.7585 14.3134L18.0683 16.6099L18.9633 20.1429C19.0321 20.4195 18.9236 20.7099 18.6903 20.8734C18.4569 21.037 18.1469 21.0401 17.9104 20.8811L17.9084 20.8811Z" fill="#4F4F4F"/>
<path fill-rule="evenodd" clip-rule="evenodd" d="M20.1248 6.96962H20.072L19.4423 2.26513C19.2652 0.97022 18.1561 0.0036 16.8435 0H4.15537C2.84271 0.00359 1.73367 0.97022 1.55654 2.26513L0.926881 6.96962H0.874081C0.390791 6.96962 -0.000999451 7.35967 -0.000999451 7.84082C-0.000999451 8.32197 0.390781 8.71202 0.874081 8.71202H1.74916V16.548C1.75346 17.9897 2.9263 19.1573 4.37439 19.1616H10.0003L10.4374 17.4192H4.37537C3.89281 17.4171 3.50199 17.0284 3.49932 16.548V8.71203H13.4566C13.9133 8.16039 14.5938 7.84085 15.3119 7.84085C16.0299 7.84085 16.7104 8.16038 17.1671 8.71203H17.4996V9.26103C17.5317 9.30579 17.5555 9.35589 17.57 9.40899L18.357 11.5505L19.2497 11.6031V8.71202H20.1248C20.6081 8.71202 20.9999 8.32197 20.9999 7.84082C20.9999 7.35967 20.6081 6.96962 20.1248 6.96962H20.1248ZM4.86424 6.96962H2.69366L3.2891 2.50069C3.34799 2.06848 3.71727 1.74523 4.15538 1.7424H5.5643L4.86424 6.96962ZM9.62387 6.96962H6.63199L7.33205 1.7424H9.62387V6.96962ZM11.374 6.96962V1.7424H13.6668L14.3669 6.96962H11.374ZM16.1337 6.96962L15.4336 1.7424H16.8425C17.2806 1.74523 17.6499 2.06847 17.7088 2.50069L18.3042 6.96962H16.1337Z" fill="#4F4F4F"/>
<path d="M8.06993 13.3133C7.78136 14.1582 7.96673 15.0929 8.55589 15.7636C8.43089 15.8013 8.30094 15.82 8.1704 15.819H6.79453C5.90929 15.8145 5.19293 15.0977 5.189 14.2125V12.8356C5.19349 11.9507 5.90968 11.2345 6.79453 11.23H8.17143C8.65176 11.2278 9.10604 11.4482 9.40172 11.8267C8.7694 12.1145 8.28617 12.6535 8.06891 13.3133H8.06993Z" fill="#4F4F4F"/>
</g>
</g>
<defs>
<clipPath id="clip0_458_301">
<rect width="21.0009" height="21.0004" fill="white" transform="translate(-0.000999451)"/>
</clipPath>
<clipPath id="clip1_458_301">
<rect width="21.0009" height="21.0004" fill="white" transform="translate(-0.000999451)"/>
</clipPath>
</defs>
</svg>
