<svg width="15" height="15" viewBox="0 0 15 15" fill="none" xmlns="http://www.w3.org/2000/svg">
<path fill-rule="evenodd" clip-rule="evenodd" d="M2.0262 0.5H12.9151C13.7706 0.5 14.4706 1.2 14.4706 2.05556V12.9444C14.4706 13.8 13.7706 14.5 12.9151 14.5H2.0262C1.17064 14.5 0.470642 13.8 0.470642 12.9444V2.05556C0.470642 1.2 1.17064 0.5 2.0262 0.5ZM3.58197 10.612C3.58197 11.0398 3.93197 11.3898 4.35975 11.3898C4.78753 11.3898 5.13753 11.0398 5.13753 10.612V6.72309C5.13753 6.29531 4.78753 5.94531 4.35975 5.94531C3.93197 5.94531 3.58197 6.29531 3.58197 6.72309V10.612ZM7.47108 11.3872C7.0433 11.3872 6.6933 11.0372 6.6933 10.6094V4.38715C6.6933 3.95937 7.0433 3.60938 7.47108 3.60938C7.89885 3.60938 8.24885 3.95937 8.24885 4.38715V10.6094C8.24885 11.0372 7.89885 11.3872 7.47108 11.3872ZM9.80463 10.6107C9.80463 11.0385 10.1546 11.3885 10.5824 11.3885C11.0102 11.3885 11.3602 11.0385 11.3602 10.6107V9.05512C11.3602 8.62734 11.0102 8.27734 10.5824 8.27734C10.1546 8.27734 9.80463 8.62734 9.80463 9.05512V10.6107Z" fill="#2F9A4C"/>
</svg>
