<svg width="10" height="12" viewBox="0 0 10 12" fill="none" xmlns="http://www.w3.org/2000/svg">
<path d="M8.55261 2.05464C7.82433 0.797824 6.53077 0.0299878 5.09229 0.000644043C5.03089 -0.000621582 4.96908 -0.000621582 4.90765 0.000644043C3.4692 0.0299878 2.17564 0.797824 1.44734 2.05464C0.702919 3.33929 0.682552 4.88242 1.39285 6.18252L4.36854 11.6291C4.36988 11.6315 4.37122 11.6339 4.3726 11.6363C4.50352 11.8639 4.73806 11.9997 5.00002 11.9997C5.26196 11.9997 5.4965 11.8638 5.6274 11.6363C5.62878 11.6339 5.63011 11.6315 5.63145 11.6291L8.60715 6.18252C9.3174 4.88242 9.29703 3.33929 8.55261 2.05464ZM4.99997 5.43721C4.06948 5.43721 3.31247 4.6802 3.31247 3.74971C3.31247 2.81921 4.06948 2.06221 4.99997 2.06221C5.93047 2.06221 6.68747 2.81921 6.68747 3.74971C6.68747 4.6802 5.93049 5.43721 4.99997 5.43721Z" fill="#C6C6CF"/>
</svg>
