<svg width="14" height="15" viewBox="0 0 14 15" fill="none" xmlns="http://www.w3.org/2000/svg">
<path fill-rule="evenodd" clip-rule="evenodd" d="M1.55556 0.5H12.4444C13.3 0.5 14 1.2 14 2.05556V12.9444C14 13.8 13.3 14.5 12.4444 14.5H1.55556C0.7 14.5 0 13.8 0 12.9444V2.05556C0 1.2 0.7 0.5 1.55556 0.5ZM3.11133 10.612C3.11133 11.0398 3.46133 11.3898 3.88911 11.3898C4.31688 11.3898 4.66688 11.0398 4.66688 10.612V6.72309C4.66688 6.29531 4.31688 5.94531 3.88911 5.94531C3.46133 5.94531 3.11133 6.29531 3.11133 6.72309V10.612ZM7.00043 11.3872C6.57266 11.3872 6.22266 11.0372 6.22266 10.6094V4.38715C6.22266 3.95937 6.57266 3.60938 7.00043 3.60938C7.42821 3.60938 7.77821 3.95937 7.77821 4.38715V10.6094C7.77821 11.0372 7.42821 11.3872 7.00043 11.3872ZM9.33398 10.6107C9.33398 11.0385 9.68398 11.3885 10.1118 11.3885C10.5395 11.3885 10.8895 11.0385 10.8895 10.6107V9.05512C10.8895 8.62734 10.5395 8.27734 10.1118 8.27734C9.68398 8.27734 9.33398 8.62734 9.33398 9.05512V10.6107Z" fill="#C6C6CF"/>
</svg>
