<svg width="11" height="13" viewBox="0 0 11 13" fill="none" xmlns="http://www.w3.org/2000/svg">
<path fill-rule="evenodd" clip-rule="evenodd" d="M9.02934 4.45833H8.446V3.29167C8.446 1.68167 7.13934 0.375 5.52934 0.375C3.91934 0.375 2.61267 1.68167 2.61267 3.29167V4.45833H2.02934C1.38767 4.45833 0.862671 4.98333 0.862671 5.625V11.4583C0.862671 12.1 1.38767 12.625 2.02934 12.625H9.02934C9.671 12.625 10.196 12.1 10.196 11.4583V5.625C10.196 4.98333 9.671 4.45833 9.02934 4.45833ZM5.52934 9.70833C4.88767 9.70833 4.36267 9.18333 4.36267 8.54167C4.36267 7.9 4.88767 7.375 5.52934 7.375C6.171 7.375 6.696 7.9 6.696 8.54167C6.696 9.18333 6.171 9.70833 5.52934 9.70833ZM3.77934 3.29167V4.45833H7.27934V3.29167C7.27934 2.32333 6.49767 1.54167 5.52934 1.54167C4.561 1.54167 3.77934 2.32333 3.77934 3.29167Z" fill="#4F4F4F"/>
</svg>
