<svg width="22" height="18" viewBox="0 0 22 18" fill="none" xmlns="http://www.w3.org/2000/svg">
<path d="M21.5687 2.70792C20.7901 3.04421 19.9604 3.26711 19.0955 3.37534C19.9853 2.85223 20.6645 2.03019 20.9838 1.03936C20.1541 1.52639 19.2381 1.87042 18.2619 2.06239C17.4741 1.23648 16.3513 0.724976 15.1265 0.724976C12.7501 0.724976 10.8369 2.62416 10.8369 4.95241C10.8369 5.28741 10.8657 5.60952 10.9364 5.91618C7.36786 5.74482 4.21022 4.06079 2.08899 1.49547C1.71866 2.1281 1.50143 2.85223 1.50143 3.63174C1.50143 5.09544 2.26696 6.39291 3.40805 7.14409C2.71842 7.13121 2.04188 6.93407 1.46872 6.62355C1.46872 6.63644 1.46872 6.65319 1.46872 6.66994C1.46872 8.72375 2.95659 10.4297 4.9077 10.8226C4.55831 10.9167 4.1775 10.9618 3.78231 10.9618C3.5075 10.9618 3.23009 10.9463 2.96968 10.8896C3.52583 12.5634 5.10399 13.7938 6.98052 13.8338C5.52013 14.9586 3.66585 15.6363 1.65847 15.6363C1.30645 15.6363 0.968834 15.6209 0.631226 15.5784C2.53261 16.7856 4.78601 17.475 7.21607 17.475C15.1147 17.475 19.4331 11.0327 19.4331 5.44849C19.4331 5.26167 19.4266 5.08128 19.4174 4.90219C20.2693 4.30692 20.9851 3.56348 21.5687 2.70794L21.5687 2.70792Z" fill="white"/>
</svg>
